<svg width="12" height="15" viewBox="0 0 12 15" fill="none" xmlns="http://www.w3.org/2000/svg">
    <g filter="url(#filter0_d_143_1035)">
        <path fill-rule="evenodd" clip-rule="evenodd" d="M6.089 1.01514C2.692 1.21929 0 4.0454 0 7.50175C0 11.0907 2.90256 14.0002 6.48305 14.0002C7.79524 14.0002 9.01638 13.6094 10.037 12.9376C6.62666 12.4684 4 9.5426 4 6.00333C4 4.0507 4.7995 2.28481 6.089 1.01514Z" fill="url(#paint0_radial_143_1035)"/>
    </g>
    <circle opacity="0.2" cx="11" cy="8.00293" r="1" fill="#D8D8D8"/>
    <path fill-rule="evenodd" clip-rule="evenodd" d="M10 4L8.82443 4.61803L9.04894 3.30902L8.09789 2.38197L9.41221 2.19098L10 1L10.5878 2.19098L11.9021 2.38197L10.9511 3.30902L11.1756 4.61803L10 4Z" fill="url(#paint1_linear_143_1035)"/>
    <defs>
        <filter id="filter0_d_143_1035" x="-5" y="0.0151367" width="16.0371" height="18.9849" filterUnits="userSpaceOnUse" color-interpolation-filters="sRGB">
            <feFlood flood-opacity="0" result="BackgroundImageFix"/>
            <feColorMatrix in="SourceAlpha" type="matrix" values="0 0 0 0 0 0 0 0 0 0 0 0 0 0 0 0 0 0 127 0" result="hardAlpha"/>
            <feOffset dx="-2" dy="2"/>
            <feGaussianBlur stdDeviation="1.5"/>
            <feColorMatrix type="matrix" values="0 0 0 0 0.184314 0 0 0 0 0.188235 0 0 0 0 0.223529 0 0 0 1 0"/>
              <feBlend mode="normal" in2="BackgroundImageFix" result="effect1_dropShadow_143_1035"/>
            <feBlend mode="normal" in="SourceGraphic" in2="effect1_dropShadow_143_1035" result="shape"/>
        </filter>
        <radialGradient id="paint0_radial_143_1035" cx="0" cy="0" r="1" gradientUnits="userSpaceOnUse" gradientTransform="translate(5.30377 3.82078) rotate(90) scale(15.2266 11.7696)">
            <stop stop-color="white"/>
            <stop offset="1" stop-color="#DEE5EE"/>
        </radialGradient>
        <linearGradient id="paint1_linear_143_1035" x1="8.03968" y1="2.1059" x2="8.03968" y2="6.02655" gradientUnits="userSpaceOnUse">
            <stop stop-color="white"/>
            <stop offset="1" stop-color="#CECECE"/>
        </linearGradient>
    </defs>
</svg>
