<svg width="30" height="30" viewBox="0 0 30 30" fill="none" xmlns="http://www.w3.org/2000/svg">
    <path fill-rule="evenodd" clip-rule="evenodd" d="M14.0625 4.6875V1.875H15.9375V4.6875H14.0625ZM19.3444 5.60045L20.7507 3.16475L22.3745 4.10225L20.9682 6.53795L19.3444 5.60045ZM15 21.5625C18.6244 21.5625 21.5625 18.6244 21.5625 15C21.5625 11.3756 18.6244 8.4375 15 8.4375C11.3756 8.4375 8.4375 11.3756 8.4375 15C8.4375 18.6244 11.3756 21.5625 15 21.5625ZM15 23.4375C19.6599 23.4375 23.4375 19.6599 23.4375 15C23.4375 10.3401 19.6599 6.5625 15 6.5625C10.3401 6.5625 6.5625 10.3401 6.5625 15C6.5625 19.6599 10.3401 23.4375 15 23.4375ZM25.3125 14.0625H28.125V15.9375H25.3125V14.0625ZM25.8978 7.6256L23.4621 9.03185L24.3996 10.6556L26.8353 9.2494L25.8978 7.6256ZM7.6256 4.10225L9.03185 6.53795L10.6556 5.60045L9.2494 3.16475L7.6256 4.10225ZM5.60039 10.6556L3.16469 9.2494L4.10219 7.6256L6.53789 9.03185L5.60039 10.6556ZM14.0625 25.3125V28.125H15.9375V25.3125H14.0625ZM4.6875 14.0625H1.875V15.9375H4.6875V14.0625ZM3.16464 20.7506L5.60034 19.3444L6.53784 20.9681L4.10214 22.3744L3.16464 20.7506ZM9.03191 23.4622L7.62566 25.8979L9.24946 26.8354L10.6557 24.3997L9.03191 23.4622ZM20.7506 26.8354L19.3444 24.3997L20.9681 23.4622L22.3744 25.8979L20.7506 26.8354ZM23.4622 20.9681L25.8979 22.3744L26.8354 20.7506L24.3997 19.3444L23.4622 20.9681Z" fill="url(#paint0_linear_419_333)"/>
    <defs>
        <linearGradient id="paint0_linear_419_333" x1="15" y1="1.875" x2="15" y2="28.125" gradientUnits="userSpaceOnUse">
            <stop stop-color="#EFC977"/>
            <stop offset="1" stop-color="#E07256"/>
        </linearGradient>
    </defs>
</svg>
